<svg
  xmlns="http://www.w3.org/2000/svg"
  width="32"
  height="32"
  viewBox="0 0 32 32"
  shape-rendering="crispEdges"
>
  <rect width="32" height="32" fill="#000000" />

  <rect x="14" y="4" width="1" height="1" fill="#ffffff" />
  <rect x="15" y="4" width="1" height="1" fill="#ffffff" />
  <rect x="16" y="4" width="1" height="1" fill="#ffffff" />
  <rect x="17" y="4" width="1" height="1" fill="#ffffff" />

  <rect x="10" y="5" width="1" height="1" fill="#ffffff" />
  <rect x="11" y="5" width="1" height="1" fill="#ffffff" />
  <rect x="12" y="5" width="1" height="1" fill="#ffffff" />
  <rect x="13" y="5" width="1" height="1" fill="#ffffff" />
  <rect x="18" y="5" width="1" height="1" fill="#ffffff" />
  <rect x="19" y="5" width="1" height="1" fill="#ffffff" />
  <rect x="20" y="5" width="1" height="1" fill="#ffffff" />
  <rect x="21" y="5" width="1" height="1" fill="#ffffff" />

  <rect x="8" y="6" width="1" height="1" fill="#ffffff" />
  <rect x="9" y="6" width="1" height="1" fill="#ffffff" />
  <rect x="22" y="6" width="1" height="1" fill="#ffffff" />
  <rect x="23" y="6" width="1" height="1" fill="#ffffff" />

  <rect x="7" y="7" width="1" height="1" fill="#ffffff" />
  <rect x="24" y="7" width="1" height="1" fill="#ffffff" />

  <rect x="6" y="8" width="1" height="1" fill="#ffffff" />
  <rect x="25" y="8" width="1" height="1" fill="#ffffff" />

  <rect x="5" y="9" width="1" height="1" fill="#ffffff" />
  <rect x="26" y="9" width="1" height="1" fill="#ffffff" />

  <rect x="5" y="10" width="1" height="1" fill="#ffffff" />
  <rect x="26" y="10" width="1" height="1" fill="#ffffff" />

  <rect x="4" y="11" width="1" height="1" fill="#ffffff" />
  <rect x="27" y="11" width="1" height="1" fill="#ffffff" />

  <rect x="4" y="12" width="1" height="1" fill="#ffffff" />
  <rect x="27" y="12" width="1" height="1" fill="#ffffff" />

  <rect x="4" y="13" width="1" height="1" fill="#ffffff" />
  <rect x="27" y="13" width="1" height="1" fill="#ffffff" />

  <rect x="4" y="14" width="1" height="1" fill="#ffffff" />
  <rect x="27" y="14" width="1" height="1" fill="#ffffff" />

  <rect x="4" y="15" width="1" height="1" fill="#ffffff" />
  <rect x="27" y="15" width="1" height="1" fill="#ffffff" />

  <rect x="4" y="16" width="1" height="1" fill="#ffffff" />
  <rect x="27" y="16" width="1" height="1" fill="#ffffff" />

  <rect x="4" y="17" width="1" height="1" fill="#ffffff" />
  <rect x="27" y="17" width="1" height="1" fill="#ffffff" />

  <rect x="4" y="18" width="1" height="1" fill="#ffffff" />
  <rect x="27" y="18" width="1" height="1" fill="#ffffff" />

  <rect x="4" y="19" width="1" height="1" fill="#ffffff" />
  <rect x="27" y="19" width="1" height="1" fill="#ffffff" />

  <rect x="5" y="20" width="1" height="1" fill="#ffffff" />
  <rect x="26" y="20" width="1" height="1" fill="#ffffff" />

  <rect x="5" y="21" width="1" height="1" fill="#ffffff" />
  <rect x="26" y="21" width="1" height="1" fill="#ffffff" />

  <rect x="6" y="22" width="1" height="1" fill="#ffffff" />
  <rect x="25" y="22" width="1" height="1" fill="#ffffff" />

  <rect x="7" y="23" width="1" height="1" fill="#ffffff" />
  <rect x="24" y="23" width="1" height="1" fill="#ffffff" />

  <rect x="8" y="24" width="1" height="1" fill="#ffffff" />
  <rect x="9" y="24" width="1" height="1" fill="#ffffff" />
  <rect x="22" y="24" width="1" height="1" fill="#ffffff" />
  <rect x="23" y="24" width="1" height="1" fill="#ffffff" />

  <rect x="10" y="25" width="1" height="1" fill="#ffffff" />
  <rect x="11" y="25" width="1" height="1" fill="#ffffff" />
  <rect x="12" y="25" width="1" height="1" fill="#ffffff" />
  <rect x="13" y="25" width="1" height="1" fill="#ffffff" />
  <rect x="18" y="25" width="1" height="1" fill="#ffffff" />
  <rect x="19" y="25" width="1" height="1" fill="#ffffff" />
  <rect x="20" y="25" width="1" height="1" fill="#ffffff" />
  <rect x="21" y="25" width="1" height="1" fill="#ffffff" />

  <rect x="14" y="26" width="1" height="1" fill="#ffffff" />
  <rect x="15" y="26" width="1" height="1" fill="#ffffff" />
  <rect x="16" y="26" width="1" height="1" fill="#ffffff" />
  <rect x="17" y="26" width="1" height="1" fill="#ffffff" />
</svg>
